<?xml version="1.0" standalone="no"?><!DOCTYPE svg PUBLIC "-//W3C//DTD SVG 1.1//EN" "http://www.w3.org/Graphics/SVG/1.1/DTD/svg11.dtd"><svg t="1625814210521" class="icon" viewBox="0 0 1024 1024" version="1.1" xmlns="http://www.w3.org/2000/svg" p-id="1064" xmlns:xlink="http://www.w3.org/1999/xlink" width="200" height="200"><defs><style type="text/css"></style></defs><path d="M71.91379 0h459.455708c15.663927 0.876712 31.035616 6.908493 42.80694 17.335525 15.079452 13.045479 24.115434 32.777352 23.97516 52.743014 0.011689 103.662466 0 207.324932 0.01169 310.987397 117.409315 0.035068 234.806941-0.011689 352.216255 0.023379 17.721279 0.163653 35.197078 7.516347 47.821736 19.930594 12.496073 12.051872 19.953973 28.873059 21.122922 46.150137v509.6621c-0.865023 14.284566-5.903196 28.347032-14.775525 39.604018-10.894612 14.050776-27.283288 23.788128-44.92274 26.266302-2.688584 0.303927-5.377169 0.759817-8.018995 1.297534H75.17516c-11.537534-1.110502-23.215342-3.319817-33.385206-9.176256-19.030502-10.368584-32.695525-29.971872-35.617899-51.468858-1.204018-8.965845-0.584475-18.036895-0.736439-27.049498 0-288.321461-0.011689-576.631233 0-864.952694C5.096621 52.439087 12.718174 33.548858 26.254612 20.316347 38.306484 8.217717 54.905571 1.040365 71.91379 0M52.216986 70.101918c-0.058447 294.201279-0.011689 588.390868-0.023379 882.592146-0.619543 12.846758 10.847854 24.512877 23.717991 24.056986 195.202922 0.128584 390.417534-0.128584 585.620457 0.128585 0.046758-18.948676 0.011689-37.897352 0.023379-56.834338-15.547032 0.081826-31.105753-0.210411-46.641096 0.187032-24.571324 0.432511-49.014064-10.029589-65.788493-27.949589-14.42484-15.184658-23.2621-35.559452-24.279087-56.483653-1.075434-18.492785 3.927671-37.195982 13.840365-52.813151 39.113059-67.612055 78.109224-135.282557 117.198904-202.917991 3.004201-5.201826 5.82137-10.543927 9.433425-15.36 13.26758-18.15379 33.642374-30.988858 55.817352-34.858082 21.146301-3.892603 43.683653 0.105205 62.082922 11.292055 15.149589 9.024292 27.248219 22.782831 34.869772 38.63379 41.228858 71.411142 82.586301 142.752146 123.885297 214.116529 5.716164 14.296256 8.919087 29.866667 7.305936 45.308494-1.975525 22.852968-13.337717 44.642192-30.790137 59.511232-15.687306 13.583196-36.272511 21.368402-57.03306 21.532055-16.225023-0.374064-32.461735-0.151963-48.698447-0.187032 0.011689 18.901918-0.011689 37.803836 0.011689 56.717443 45.460457-0.011689 90.920913 0.023379 136.369681-0.011689 12.320731 0.303927 23.484201-10.555616 23.390685-22.899726 0.081826-167.183196 0-334.366393 0.046758-501.561279 0.502648-9.632146-5.505753-19.147397-14.471599-22.712694-5.014795-2.267763-10.614064-1.718356-15.944475-1.753425-130.244384 0-260.500457 0.011689-390.756529 0-0.023379-119.244566 0.011689-238.489132-0.01169-357.733698 0.303927-12.320731-10.649132-23.449132-22.981552-23.308859-150.829589-0.070137-301.647489-0.023379-452.477078-0.023379-12.601279-0.490959-23.998539 10.730959-23.717991 23.332238m658.539544 514.279452c-7.855342 5.844749-11.87653 14.974247-16.751051 23.156895-38.364932 66.431416-76.683105 132.88621-115.094794 199.294246-6.616256 9.807489-9.08274 22.291872-6.347397 33.841096 3.939361 17.861553 20.561826 32.005845 38.890959 32.730594 32.274703-0.245479 64.572785-0.070137 96.859178-0.116895 0.011689 34.776256-0.011689 69.552511 0.011689 104.340457 19.217534 0.011689 38.446758 0.011689 57.675982 0 0.011689-34.776256 0.011689-69.552511 0-104.328768 32.204566 0.023379 64.420822-0.151963 96.637078 0.105206 14.015708-0.526027 27.306667-8.743744 34.367123-20.818996 7.492968-12.367489 7.855342-28.674338 0.970228-41.392511-40.632694-70.101918-81.195251-140.250594-121.769498-210.38758-3.214612-7.165662-8.194338-13.571507-14.705388-18.025205-14.845662-10.69589-36.611507-10.029589-50.744109 1.601461z" p-id="1065"></path><path d="M160.683836 194.7821c2.501553-0.561096 5.084932-0.713059 7.656621-0.748127 97.022831 0.035068 194.045662-0.011689 291.080182 0.035068 15.558721-0.385753 29.586119 13.536438 29.176987 29.130228 0.490959 15.628858-13.548128 29.644566-29.153608 29.282192-97.04621 0.035068-194.09242-0.011689-291.150319 0.023379-8.287854 0.257169-16.645845-3.050959-22.315252-9.129498-7.107215-7.317626-9.807489-18.527854-6.861735-28.276895 2.79379-10.029589 11.420639-18.083653 21.567124-20.316347zM160.672146 377.149954c2.501553-0.572785 5.073242-0.724749 7.633242-0.748128 97.022831 0.023379 194.045662-0.023379 291.056804 0.01169 9.31653-0.070137 18.469406 4.66411 23.834886 12.273973 5.938265 8.124201 7.048767 19.416256 2.992511 28.61589-4.453699 10.4621-15.441826 17.68621-26.827397 17.534247-97.408584 0.023379-194.817169 0.023379-292.225754 0-14.261187 0.280548-27.47032-11.338813-28.954885-25.529863-2.185936-14.43653 8.229406-29.212055 22.490593-32.157809zM160.660457 575.871416c2.501553-0.572785 5.084932-0.736438 7.644931-0.759818 97.034521 0.035068 194.069041-0.011689 291.091872 0.023379 9.608767-0.070137 19.018813 4.991416 24.314156 13.010411 6.172055 9.012603 6.52274 21.578813 0.91178 30.95379-5.108311 8.83726-15.079452 14.576804-25.296073 14.459909-97.396895 0.023379-194.79379 0.023379-292.190685 0-14.296256 0.280548-27.517078-11.385571-28.966575-25.623379-2.139178-14.401461 8.264475-29.118539 22.490594-32.064292zM160.672146 764.072329c2.501553-0.572785 5.073242-0.736438 7.644932-0.748128 94.661553 0.011689 189.323105 0 283.996347 0 5.073242 0.023379 10.286758-0.327306 15.231415 1.16895 8.252785 2.349589 15.278174 8.556712 18.679818 16.447123 3.904292 8.942466 2.957443 19.860457-2.595069 27.92621-5.295342 7.948858-14.65863 12.963653-24.232329 12.893516-97.022831 0.035068-194.033973-0.011689-291.056803 0.023379-8.334612 0.257169-16.727671-3.062648-22.420457-9.187945-7.048767-7.294247-9.737352-18.446027-6.814977-28.16 2.770411-10.052968 11.39726-18.130411 21.567123-20.363105z" p-id="1066"></path></svg>
